<?xml version="1.0" standalone="no"?>
<!DOCTYPE svg PUBLIC "-//W3C//DTD SVG 20010904//EN"
 "http://www.w3.org/TR/2001/REC-SVG-20010904/DTD/svg10.dtd">
<svg version="1.0" xmlns="http://www.w3.org/2000/svg"
 width="2234.000000pt" height="2674.000000pt" viewBox="0 0 2234.000000 2674.000000"
 preserveAspectRatio="xMidYMid meet">

<g transform="translate(0.000000,2674.000000) scale(0.100000,-0.100000)"
fill="#000000" stroke="none">
<path d="M2559 22233 l-2556 -4498 1288 -3 1289 -2 3 -5868 c3 -4273 7 -5906
15 -6012 26 -335 45 -526 68 -710 174 -1386 628 -2511 1361 -3366 130 -153
415 -433 568 -560 750 -620 1706 -1009 2825 -1148 1086 -135 2251 -57 3187
213 950 275 1749 737 2432 1406 374 366 645 708 904 1139 210 351 381 726 522
1151 189 566 287 1085 347 1835 8 104 13 1142 18 3670 6 3273 7 3533 23 3639
36 232 82 394 157 542 55 109 89 157 173 246 153 161 357 258 615 293 133 18
468 8 590 -19 336 -72 552 -224 677 -475 152 -306 152 -788 1 -1101 -176 -365
-549 -564 -1151 -615 -66 -5 -153 -10 -192 -10 l-73 0 0 -2219 0 -2219 308 -7
c632 -16 1174 4 1647 60 1204 143 2171 518 2900 1124 139 116 386 359 525 518
647 736 1051 1610 1219 2633 66 400 85 651 85 1120 0 455 -19 712 -80 1089
-195 1214 -722 2254 -1594 3145 -1102 1127 -2431 1720 -4045 1806 -999 53
-2006 -116 -2941 -494 -712 -287 -1303 -640 -1863 -1113 -158 -133 -493 -469
-627 -628 -851 -1012 -1233 -2008 -1349 -3520 -37 -485 -38 -574 -45 -3830 -6
-2975 -8 -3229 -24 -3335 -59 -398 -156 -641 -329 -826 -172 -184 -371 -269
-657 -281 -521 -22 -869 210 -1040 692 -38 110 -65 218 -93 384 l-21 126 -3
5762 -3 5763 1308 2 1308 3 -2555 4498 c-1406 2473 -2558 4497 -2561 4497 -3
0 -1155 -2024 -2561 -4497z"/>
</g>
</svg>
